<svg width="120" height="120" viewBox="0 0 120 120" xmlns="http://www.w3.org/2000/svg">
  <defs>
    <linearGradient id="teacupGradientSad" x1="0%" y1="0%" x2="100%" y2="100%">
      <stop offset="0%" style="stop-color:#f5f5f5;stop-opacity:1" />
      <stop offset="30%" style="stop-color:#e8e8e8;stop-opacity:1" />
      <stop offset="70%" style="stop-color:#d8d8d8;stop-opacity:1" />
      <stop offset="100%" style="stop-color:#c0c0c0;stop-opacity:1" />
    </linearGradient>
    <linearGradient id="goldRimSad" x1="0%" y1="0%" x2="100%" y2="100%">
      <stop offset="0%" style="stop-color:#e8d4a3;stop-opacity:1" />
      <stop offset="50%" style="stop-color:#c49c2a;stop-opacity:1" />
      <stop offset="100%" style="stop-color:#a87f1a;stop-opacity:1" />
    </linearGradient>
    <filter id="shadowSad" x="-50%" y="-50%" width="200%" height="200%">
      <feDropShadow dx="2" dy="4" stdDeviation="3" flood-color="#000000" flood-opacity="0.3"/>
    </filter>
  </defs>
  
  <!-- Plato base (más opaco para tristeza) -->
  <ellipse cx="60" cy="100" rx="45" ry="8" fill="#cccccc" opacity="0.7"/>
  
  <!-- Cuerpo principal de la taza -->
  <g filter="url(#shadowSad)">
    <!-- Base de la taza (ligeramente inclinada) -->
    <path d="M25,85 Q25,95 35,95 L85,95 Q95,95 95,85 L95,40 Q95,25 80,25 L40,25 Q25,25 25,40 Z" 
          fill="url(#teacupGradientSad)" stroke="url(#goldRimSad)" stroke-width="2"/>
    
    <!-- Borde dorado superior (menos brillante) -->
    <ellipse cx="60" cy="30" rx="35" ry="5" fill="url(#goldRimSad)"/>
    
    <!-- Asa de la taza (ligeramente caída) -->
    <path d="M95,45 Q110,50 110,65 Q110,80 95,75" 
          fill="none" stroke="url(#goldRimSad)" stroke-width="4" stroke-linecap="round"/>
    <path d="M95,47 Q107,52 107,65 Q107,78 95,73" 
          fill="none" stroke="url(#teacupGradientSad)" stroke-width="2"/>
  </g>
  
  <!-- Chip opaco en el borde -->
  <ellipse cx="75" cy="32" rx="3" ry="2" fill="#e8e8e8" opacity="0.6"/>
  
  <!-- Cara triste de Chip -->
  <g transform="translate(60,55)">
    <!-- Ojos tristes y llorosos -->
    <ellipse cx="-12" cy="-8" rx="5" ry="7" fill="#2c3e50"/>
    <ellipse cx="12" cy="-8" rx="5" ry="7" fill="#2c3e50"/>
    <!-- Lágrimas -->
    <ellipse cx="-8" cy="2" rx="1.5" ry="3" fill="#87ceeb" opacity="0.8"/>
    <ellipse cx="16" cy="2" rx="1.5" ry="3" fill="#87ceeb" opacity="0.8"/>
    
    <!-- Boca triste volcada -->
    <path d="M-12,15 Q0,5 12,15" fill="none" stroke="#722f37" stroke-width="3" stroke-linecap="round"/>
    
    <!-- Mejillas menos sonrosadas -->
    <circle cx="-20" cy="2" r="4" fill="#ddd" opacity="0.4"/>
    <circle cx="20" cy="2" r="4" fill="#ddd" opacity="0.4"/>
    
    <!-- Cejas tristes inclinadas -->
    <path d="M-18,-18 Q-12,-15 -6,-18" fill="none" stroke="#2c3e50" stroke-width="2" stroke-linecap="round"/>
    <path d="M6,-18 Q12,-15 18,-18" fill="none" stroke="#2c3e50" stroke-width="2" stroke-linecap="round"/>
  </g>
  
  <!-- Detalles decorativos opacos -->
  <g opacity="0.2">
    <circle cx="45" cy="50" r="2" fill="#c49c2a"/>
    <circle cx="75" cy="65" r="1.5" fill="#c49c2a"/>
    <circle cx="50" cy="75" r="1" fill="#c49c2a"/>
  </g>
  
  <!-- Vapor triste muy sutil -->
  <g opacity="0.2">
    <path d="M50,25 Q48,15 50,10 Q52,5 50,0" fill="none" stroke="#999" stroke-width="1" stroke-linecap="round">
      <animate attributeName="opacity" values="0.2;0.4;0.2" dur="3s" repeatCount="indefinite"/>
    </path>
    <path d="M60,20 Q58,10 60,5 Q62,0 60,-5" fill="none" stroke="#999" stroke-width="1" stroke-linecap="round">
      <animate attributeName="opacity" values="0.4;0.2;0.4" dur="3.5s" repeatCount="indefinite"/>
    </path>
  </g>
  
  <!-- Pequeña nube de tristeza -->
  <g opacity="0.3" transform="translate(30,20)">
    <circle cx="0" cy="0" r="3" fill="#999"/>
    <circle cx="4" cy="-1" r="2.5" fill="#999"/>
    <circle cx="-3" cy="-1" r="2" fill="#999"/>
  </g>
</svg>