<svg width="400" height="80" viewBox="0 0 400 80" xmlns="http://www.w3.org/2000/svg">
  <defs>
    <linearGradient id="goldGradientBottom" x1="0%" y1="100%" x2="100%" y2="0%">
      <stop offset="0%" style="stop-color:#f4e7b8;stop-opacity:1" />
      <stop offset="50%" style="stop-color:#d4af37;stop-opacity:1" />
      <stop offset="100%" style="stop-color:#b8941f;stop-opacity:1" />
    </linearGradient>
    <pattern id="ornatePatternBottom" x="0" y="0" width="40" height="40" patternUnits="userSpaceOnUse">
      <circle cx="20" cy="20" r="3" fill="#b8941f" opacity="0.3"/>
      <path d="M15,20 Q20,15 25,20 Q20,25 15,20" fill="#f4e7b8" opacity="0.5"/>
    </pattern>
  </defs>
  
  <!-- Fondo base -->
  <rect width="400" height="80" fill="url(#goldGradientBottom)"/>
  
  <!-- Patrón ornamental -->
  <rect width="400" height="80" fill="url(#ornatePatternBottom)"/>
  
  <!-- Detalles decorativos superiores -->
  <path d="M0,10 Q50,0 100,10 T200,10 T300,10 T400,10 L400,0 L0,0 Z" fill="#b8941f" opacity="0.6"/>
  
  <!-- Detalles decorativos inferiores -->
  <path d="M0,70 Q50,80 100,70 T200,70 T300,70 T400,70 L400,80 L0,80 Z" fill="#b8941f" opacity="0.6"/>
  
  <!-- Elementos de rosas en las esquinas -->
  <g opacity="0.8">
    <!-- Rosa izquierda -->
    <g transform="translate(30,40)">
      <circle r="12" fill="#d4af37" opacity="0.6"/>
      <path d="M-8,-8 Q0,-12 8,-8 Q12,0 8,8 Q0,12 -8,8 Q-12,0 -8,-8" fill="#f4e7b8"/>
      <circle r="4" fill="#b8941f"/>
    </g>
    
    <!-- Rosa derecha -->
    <g transform="translate(370,40)">
      <circle r="12" fill="#d4af37" opacity="0.6"/>
      <path d="M-8,-8 Q0,-12 8,-8 Q12,0 8,8 Q0,12 -8,8 Q-12,0 -8,-8" fill="#f4e7b8"/>
      <circle r="4" fill="#b8941f"/>
    </g>
    
    <!-- Detalles centrales -->
    <circle cx="200" cy="15" r="5" fill="#f4e7b8"/>
    <circle cx="200" cy="65" r="5" fill="#f4e7b8"/>
  </g>
</svg>